<svg width="27" height="35" viewBox="0 0 27 35" fill="none" xmlns="http://www.w3.org/2000/svg">
<path d="M9.92859 1.64282V8.78568C9.92859 9.25928 9.74045 9.71348 9.40556 10.0484C9.07068 10.3833 8.61648 10.5714 8.14287 10.5714H1.00002" stroke="#0099FF" stroke-width="2" stroke-linecap="round" stroke-linejoin="round"/>
<path d="M9.92857 14.6429H8.14286M18.8571 18.8571H8.14286M18.5 26H8.14286M18.5 22.6429H8.14286M4.57143 33.1429H22.4286C23.3758 33.1429 24.2842 32.7666 24.954 32.0968C25.6237 31.427 26 30.5186 26 29.5714V4.57143C26 3.62423 25.6237 2.71582 24.954 2.04605C24.2842 1.37627 23.3758 1 22.4286 1H9.92857L1 9.92857V29.5714C1 30.5186 1.37627 31.427 2.04605 32.0968C2.71582 32.7666 3.62423 33.1429 4.57143 33.1429Z" stroke="#0099FF" stroke-width="2" stroke-linecap="round" stroke-linejoin="round"/>
</svg>
