<svg width="25" height="33" viewBox="0 0 25 33" fill="none" xmlns="http://www.w3.org/2000/svg">
<path fill-rule="evenodd" clip-rule="evenodd" d="M14.5833 5.16061C14.5833 5.70753 14.3638 6.23206 13.9731 6.61879C13.5824 7.00552 13.0525 7.22279 12.5 7.22279C11.9475 7.22279 11.4176 7.00552 11.0269 6.61879C10.6362 6.23206 10.4167 5.70753 10.4167 5.16061C10.4167 4.61369 10.6362 4.08916 11.0269 3.70243C11.4176 3.3157 11.9475 3.09843 12.5 3.09843C13.0525 3.09843 13.5824 3.3157 13.9731 3.70243C14.3638 4.08916 14.5833 4.61369 14.5833 5.16061ZM17.6042 4.12952C17.3651 2.96409 16.7263 1.91632 15.7961 1.16372C14.8659 0.411128 13.7014 0 12.5 0C11.2986 0 10.1341 0.411128 9.2039 1.16372C8.27368 1.91632 7.63491 2.96409 7.39583 4.12952H2.08333C1.5308 4.12952 1.00089 4.34679 0.610194 4.73352C0.219493 5.12025 0 5.64478 0 6.1917V30.9378C0 31.4847 0.219493 32.0093 0.610194 32.396C1.00089 32.7827 1.5308 33 2.08333 33H22.9167C23.4692 33 23.9991 32.7827 24.3898 32.396C24.7805 32.0093 25 31.4847 25 30.9378V6.1917C25 5.64478 24.7805 5.12025 24.3898 4.73352C23.9991 4.34679 23.4692 4.12952 22.9167 4.12952H17.6042ZM12.5 10.3161H7.29167V7.22279H3.125V29.9067H21.875V7.22279H17.7083V10.3161H12.5ZM6.25 15.987C6.25 15.5768 6.41462 15.1835 6.70765 14.8934C7.00067 14.6034 7.3981 14.4404 7.8125 14.4404H17.1875C17.6019 14.4404 17.9993 14.6034 18.2924 14.8934C18.5854 15.1835 18.75 15.5768 18.75 15.987C18.75 16.3972 18.5854 16.7906 18.2924 17.0807C17.9993 17.3707 17.6019 17.5337 17.1875 17.5337H7.8125C7.3981 17.5337 7.00067 17.3707 6.70765 17.0807C6.41462 16.7906 6.25 16.3972 6.25 15.987ZM7.8125 19.5958C7.3981 19.5958 7.00067 19.7588 6.70765 20.0488C6.41462 20.3389 6.25 20.7323 6.25 21.1425C6.25 21.5527 6.41462 21.9461 6.70765 22.2361C7.00067 22.5262 7.3981 22.6891 7.8125 22.6891H17.1875C17.6019 22.6891 17.9993 22.5262 18.2924 22.2361C18.5854 21.9461 18.75 21.5527 18.75 21.1425C18.75 20.7323 18.5854 20.3389 18.2924 20.0488C17.9993 19.7588 17.6019 19.5958 17.1875 19.5958H7.8125Z" fill="#0099FF"/>
</svg>
