<svg width="25" height="15" viewBox="0 0 25 15" fill="none" xmlns="http://www.w3.org/2000/svg">
<path fill-rule="evenodd" clip-rule="evenodd" d="M1.67843 6.3675C2.84875 5.03812 4.62448 3.51562 6.9047 2.47875C5.66528 3.85518 4.98019 5.6449 4.98261 7.5C4.98261 9.43125 5.71009 11.1919 6.9047 12.5212C4.6251 11.4844 2.84875 9.96187 1.67843 8.6325C1.3998 8.32155 1.24564 7.91817 1.24564 7.5C1.24564 7.08183 1.3998 6.67845 1.67843 6.3675ZM0.744794 5.54C2.86744 3.12875 6.90159 0.0581253 12.3458 0.000625253L12.4567 0H12.5003C18.0224 0 22.1126 3.10625 24.2552 5.54C24.7349 6.0794 25 6.77706 25 7.5C25 8.22294 24.7349 8.9206 24.2552 9.46C22.1126 11.8938 18.0224 15 12.5003 15H12.4567L12.3458 14.9994C6.90221 14.9419 2.86744 11.8713 0.744794 9.46C0.26511 8.9206 0 8.22294 0 7.5C0 6.77706 0.26511 6.0794 0.744794 5.54ZM12.4742 1.25L12.3614 1.25063C8.96506 1.30188 6.22829 4.08 6.22829 7.5C6.22829 10.92 8.96568 13.6981 12.3614 13.7494L12.4742 13.75C15.906 13.7406 18.6851 10.9456 18.6851 7.5C18.6851 4.05438 15.906 1.25937 12.4742 1.25ZM19.9308 7.5C19.9308 9.4625 19.179 11.25 17.9489 12.5869C20.2995 11.5494 22.1263 9.99 23.3216 8.6325C23.6002 8.32155 23.7544 7.91817 23.7544 7.5C23.7544 7.08183 23.6002 6.67845 23.3216 6.3675C22.1263 5.01 20.2995 3.45062 17.9489 2.41313C19.2253 3.79719 19.9333 5.61422 19.9308 7.5ZM12.5003 11.25C13.1317 11.2501 13.7529 11.0897 14.3058 10.7838C14.8587 10.4778 15.3254 10.0362 15.6622 9.50026C15.999 8.96432 16.195 8.35147 16.2318 7.71894C16.2687 7.08641 16.1453 6.45482 15.873 5.88313C15.7581 6.00251 15.6206 6.09774 15.4687 6.16325C15.3167 6.22876 15.1532 6.26325 14.9878 6.26469C14.8224 6.26613 14.6584 6.2345 14.5053 6.17165C14.3522 6.1088 14.2131 6.01598 14.0962 5.89862C13.9792 5.78125 13.8867 5.64169 13.8241 5.48807C13.7614 5.33445 13.7299 5.16985 13.7314 5.00387C13.7328 4.8379 13.7672 4.67387 13.8324 4.52137C13.8977 4.36887 13.9926 4.23093 14.1116 4.11562C13.6055 3.87326 13.0515 3.74831 12.4907 3.75002C11.93 3.75173 11.3767 3.88006 10.8721 4.12551C10.3675 4.37095 9.92437 4.72721 9.57561 5.16788C9.22686 5.60856 8.98142 6.12234 8.85747 6.67115C8.73352 7.21996 8.73425 7.78973 8.8596 8.33822C8.98495 8.88671 9.2317 9.39986 9.58158 9.83963C9.93146 10.2794 10.3755 10.6345 10.8807 10.8787C11.386 11.1228 11.9395 11.2497 12.5003 11.25Z" fill="#0099FF"/>
</svg>
