<svg width="32" height="32" viewBox="0 0 32 32" fill="none" xmlns="http://www.w3.org/2000/svg">
<path d="M12.6667 31V16M17.6667 9.33333H8.5C7.39493 9.33333 6.33512 8.89435 5.55372 8.11294C4.77232 7.33154 4.33333 6.27174 4.33333 5.16667C4.33333 4.0616 4.77232 3.00179 5.55372 2.22039C6.33512 1.43899 7.39493 1 8.5 1C11 1 13.2917 3.08333 14.9583 5.16667M19.3333 31V16M4.33333 16H27.6667V29.3333C27.6667 29.7754 27.4911 30.1993 27.1785 30.5118C26.866 30.8244 26.442 31 26 31H6C5.55797 31 5.13405 30.8244 4.82149 30.5118C4.50893 30.1993 4.33333 29.7754 4.33333 29.3333V16ZM2.66667 9.33333H29.3333C29.7754 9.33333 30.1993 9.50893 30.5118 9.82149C30.8244 10.134 31 10.558 31 11V16H1V11C1 10.558 1.17559 10.134 1.48816 9.82149C1.80072 9.50893 2.22464 9.33333 2.66667 9.33333ZM22.925 1C17.925 1 13.7583 9.33333 13.7583 9.33333H22.925C24.0301 9.33333 25.0899 8.89435 25.8713 8.11294C26.6527 7.33154 27.0917 6.27174 27.0917 5.16667C27.0917 4.0616 26.6527 3.00179 25.8713 2.22039C25.0899 1.43899 24.0301 1 22.925 1Z" stroke="#0099FF" stroke-width="2" stroke-linecap="round" stroke-linejoin="round"/>
</svg>
