<svg width="25" height="25" viewBox="0 0 25 25" fill="none" xmlns="http://www.w3.org/2000/svg">
<path d="M12.5 16.25C12.8542 16.25 13.1512 16.13 13.3912 15.89C13.6312 15.65 13.7508 15.3533 13.75 15C13.7492 14.6467 13.6292 14.35 13.39 14.11C13.1508 13.87 12.8542 13.75 12.5 13.75C12.1458 13.75 11.8492 13.87 11.61 14.11C11.3708 14.35 11.2508 14.6467 11.25 15C11.2492 15.3533 11.3692 15.6504 11.61 15.8913C11.8508 16.1321 12.1475 16.2517 12.5 16.25ZM11.25 11.25H13.75V3.75H11.25V11.25ZM0 25V2.5C0 1.8125 0.245 1.22417 0.735 0.735C1.225 0.245833 1.81333 0.000833333 2.5 0H22.5C23.1875 0 23.7762 0.245 24.2662 0.735C24.7562 1.225 25.0008 1.81333 25 2.5V17.5C25 18.1875 24.7554 18.7763 24.2662 19.2663C23.7771 19.7563 23.1883 20.0008 22.5 20H5L0 25ZM3.9375 17.5H22.5V2.5H2.5V18.9062L3.9375 17.5Z" fill="#0099FF"/>
</svg>
